<svg width="50" height="47" viewBox="0 0 50 47" fill="none" xmlns="http://www.w3.org/2000/svg">
<path d="M34.3575 18.3577L15.6171 8.22191M6.80904 13.5925L24.9873 23.4549L43.1656 13.5925M24.9873 43.121V23.4353M43.7278 31.2471V15.6236C43.727 14.9386 43.5343 14.2659 43.1688 13.6729C42.8033 13.0799 42.278 12.5874 41.6455 12.245L27.0696 4.4332C26.4365 4.09039 25.7183 3.90991 24.9873 3.90991C24.2563 3.90991 23.5381 4.09039 22.905 4.4332L8.3291 12.245C7.69664 12.5874 7.17132 13.0799 6.80584 13.6729C6.44036 14.2659 6.24758 14.9386 6.24683 15.6236V31.2471C6.24758 31.932 6.44036 32.6048 6.80584 33.1978C7.17132 33.7908 7.69664 34.2832 8.3291 34.6257L22.905 42.4374C23.5381 42.7803 24.2563 42.9607 24.9873 42.9607C25.7183 42.9607 26.4365 42.7803 27.0696 42.4374L41.6455 34.6257C42.278 34.2832 42.8033 33.7908 43.1688 33.1978C43.5343 32.6048 43.727 31.932 43.7278 31.2471Z" stroke="#F3F3F3" stroke-width="4" stroke-linecap="round" stroke-linejoin="round"/>
<path d="M15.2097 9.46722L32.4369 18.7793V26.5393L36.0065 24.8321V17.8481L17.5377 7.76001L15.2097 9.46722Z" fill="white"/>
<path d="M15.5628 9.23389C15.6469 9.26441 15.8207 9.33019 15.8726 9.33597C15.8978 9.33877 15.9207 9.33794 15.8925 9.32459C15.6745 9.22159 15.5401 9.22625 15.4801 9.18781C15.4651 9.17819 15.4513 9.16475 15.453 9.15885C15.4693 9.1016 15.6237 9.16452 15.7278 9.15688C15.7603 9.15451 15.748 9.13399 15.7517 9.13185C15.7728 9.11942 15.8093 9.15677 15.8324 9.15492C15.8421 9.15415 15.8403 9.13399 15.8326 9.12232C15.825 9.11064 15.8098 9.10301 15.8114 9.10098C15.8247 9.08495 15.8671 9.11052 15.8826 9.1144C15.8976 9.11815 15.8366 9.09526 15.8135 9.08746C15.8052 9.08469 15.8056 9.11018 15.798 9.12382C15.7579 9.19548 15.5903 9.13006 15.5359 9.10867C15.4713 9.08331 15.6704 9.13746 15.7071 9.14139C15.7261 9.14343 15.7054 9.09145 15.7226 9.06642C15.7446 9.03448 15.8092 9.0489 15.8287 9.0489C15.9402 9.0489 15.6517 9.04878 15.617 9.07376C15.6042 9.08294 15.6204 9.10255 15.6358 9.11422C15.6673 9.13808 15.7281 9.16047 15.7802 9.18174C15.7925 9.18677 15.7595 9.14151 15.7288 9.11844C15.7108 9.10494 15.6828 9.09538 15.6671 9.09902C15.6515 9.10266 15.6477 9.12174 15.6495 9.1411C15.6514 9.16047 15.659 9.17955 15.6437 9.22232" stroke="white" stroke-width="0.5" stroke-linecap="round"/>
<path d="M14.962 9.30307C15.0735 9.37232 15.2344 9.44134 15.3721 9.49562C15.3932 9.50397 15.4087 9.50724 15.4204 9.50158C15.4321 9.49591 15.4397 9.48065 15.4379 9.45944C15.3976 9.37255 15.3552 9.33787 15.3283 9.31671C15.3129 9.307 15.2938 9.29937 15.2741 9.2915" stroke="white" stroke-width="0.5" stroke-linecap="round"/>
<path d="M15.1699 9.2453C15.2118 9.27582 15.4423 9.38357 15.5284 9.40531C15.6781 9.44312 15.2936 9.32253 15.2489 9.31848C15.1718 9.3115 15.3931 9.34542 15.4646 9.34363C15.4826 9.34318 15.4398 9.2994 15.4377 9.28582C15.433 9.25392 15.4935 9.33767 15.4975 9.34738C15.532 9.43126 15.3514 9.24553 15.3013 9.21275C15.2955 9.20899 15.3393 9.22206 15.3606 9.23749C15.3643 9.24017 15.3475 9.23766 15.3435 9.24715C15.3307 9.2771 15.3816 9.32981 15.4164 9.35883C15.4244 9.36114 15.4129 9.33825 15.3994 9.31692C15.3859 9.29559 15.3706 9.27651 15.3318 9.25686" stroke="white" stroke-width="0.5" stroke-linecap="round"/>
</svg>
