<svg width="60" height="57" viewBox="0 0 60 57" fill="none" xmlns="http://www.w3.org/2000/svg">
<path d="M41.25 22.0404L18.75 9.8713M8.175 16.3193L30 28.1601L51.825 16.3193M30 51.7715V28.1367M52.5 37.5156V18.7578C52.4991 17.9354 52.2676 17.1278 51.8288 16.4158C51.3901 15.7038 50.7593 15.1126 50 14.7014L32.5 5.32254C31.7399 4.91096 30.8777 4.69427 30 4.69427C29.1223 4.69427 28.2601 4.91096 27.5 5.32254L10 14.7014C9.24066 15.1126 8.60995 15.7038 8.17115 16.4158C7.73236 17.1278 7.5009 17.9354 7.5 18.7578V37.5156C7.5009 38.3379 7.73236 39.1456 8.17115 39.8575C8.60995 40.5695 9.24066 41.1607 10 41.5719L27.5 50.9508C28.2601 51.3624 29.1223 51.5791 30 51.5791C30.8777 51.5791 31.7399 51.3624 32.5 50.9508L50 41.5719C50.7593 41.1607 51.3901 40.5695 51.8288 39.8575C52.2676 39.1456 52.4991 38.3379 52.5 37.5156Z" stroke="#303030" stroke-width="4" stroke-linecap="round" stroke-linejoin="round"/>
<path d="M18.2609 11.3665L38.9441 22.5466V31.8634L43.2298 29.8137V21.4286L21.0559 9.31677L18.2609 11.3665Z" fill="#303030"/>
<path d="M18.6848 11.0864C18.7858 11.1231 18.9945 11.202 19.0568 11.209C19.087 11.2123 19.1146 11.2113 19.0807 11.1953C18.8189 11.0716 18.6576 11.0772 18.5856 11.0311C18.5676 11.0195 18.551 11.0034 18.553 10.9963C18.5726 10.9276 18.758 11.0031 18.883 10.994C18.9219 10.9911 18.9072 10.9665 18.9116 10.9639C18.937 10.949 18.9808 10.9938 19.0085 10.9916C19.0201 10.9907 19.018 10.9665 19.0088 10.9525C18.9997 10.9384 18.9813 10.9293 18.9833 10.9268C18.9993 10.9076 19.0502 10.9383 19.0688 10.9429C19.0868 10.9475 19.0135 10.92 18.9858 10.9106C18.9759 10.9073 18.9763 10.9379 18.9672 10.9543C18.9191 11.0403 18.7179 10.9618 18.6525 10.9361C18.575 10.9056 18.8141 10.9706 18.8581 10.9754C18.8809 10.9778 18.856 10.9154 18.8767 10.8853C18.9031 10.847 18.9806 10.8643 19.004 10.8643C19.138 10.8643 18.7916 10.8642 18.7499 10.8942C18.7345 10.9052 18.754 10.9287 18.7725 10.9427C18.8104 10.9714 18.8833 10.9983 18.9459 11.0238C18.9607 11.0298 18.921 10.9755 18.8841 10.9478C18.8625 10.9316 18.8289 10.9201 18.8101 10.9245C18.7913 10.9289 18.7867 10.9518 18.7889 10.975C18.7912 10.9983 18.8003 11.0212 18.782 11.0725" stroke="#303030" stroke-width="0.5" stroke-linecap="round"/>
<path d="M17.9635 11.1694C18.0975 11.2525 18.2905 11.3354 18.4559 11.4006C18.4813 11.4106 18.4999 11.4145 18.5139 11.4077C18.5279 11.4009 18.5371 11.3826 18.5349 11.3571C18.4865 11.2528 18.4356 11.2112 18.4033 11.1858C18.3848 11.1741 18.3619 11.165 18.3383 11.1555" stroke="#303030" stroke-width="0.5" stroke-linecap="round"/>
<path d="M18.2132 11.1001C18.2634 11.1367 18.5402 11.2661 18.6435 11.2922C18.8233 11.3376 18.3617 11.1928 18.308 11.188C18.2155 11.1796 18.4811 11.2203 18.5669 11.2182C18.5885 11.2176 18.5371 11.1651 18.5347 11.1488C18.529 11.1105 18.6017 11.211 18.6065 11.2227C18.6478 11.3234 18.4311 11.1004 18.3708 11.061C18.3639 11.0565 18.4165 11.0722 18.442 11.0907C18.4465 11.0939 18.4264 11.0909 18.4215 11.1023C18.4062 11.1383 18.4673 11.2016 18.509 11.2364C18.5187 11.2392 18.5049 11.2117 18.4887 11.1861C18.4724 11.1605 18.4541 11.1376 18.4075 11.114" stroke="#303030" stroke-width="0.5" stroke-linecap="round"/>
</svg>
