<svg width="121" height="180" viewBox="0 0 121 180" fill="none" xmlns="http://www.w3.org/2000/svg">
<path d="M80.4036 112.429L36.5471 88.709M15.9345 101.277L58.4753 124.357L101.016 101.277M58.4753 170.38V124.311M102.332 142.593V106.03C102.33 104.427 101.879 102.853 101.024 101.465C100.168 100.078 98.939 98.9252 97.4589 98.1237L63.3483 79.8426C61.8667 79.0404 60.1861 78.618 58.4753 78.618C56.7646 78.618 55.0839 79.0404 53.6024 79.8426L19.4918 98.1237C18.0117 98.9252 16.7823 100.078 15.927 101.465C15.0717 102.853 14.6206 104.427 14.6188 106.03V142.593C14.6206 144.195 15.0717 145.77 15.927 147.157C16.7823 148.545 18.0117 149.698 19.4918 150.499L53.6024 168.78C55.0839 169.582 56.7646 170.005 58.4753 170.005C60.1861 170.005 61.8667 169.582 63.3483 168.78L97.4589 150.499C98.939 149.698 100.168 148.545 101.024 147.157C101.879 145.77 102.33 144.195 102.332 142.593Z" stroke="#F3F3F3" stroke-width="4" stroke-linecap="round" stroke-linejoin="round"/>
<path d="M35.5937 91.6234L75.909 113.415V131.575L84.2626 127.58V111.236L41.0417 87.6282L35.5937 91.6234Z" fill="#F3F3F3"/>
<path d="M36.4201 91.0775C36.6168 91.1489 37.0237 91.3028 37.1452 91.3164C37.204 91.3229 37.2577 91.321 37.1916 91.2897C36.6814 91.0487 36.367 91.0596 36.2266 90.9696C36.1915 90.9471 36.1592 90.9157 36.1632 90.9019C36.2013 90.7679 36.5627 90.9151 36.8063 90.8973C36.8822 90.8917 36.8535 90.8437 36.862 90.8387C36.9116 90.8096 36.9969 90.897 37.051 90.8927C37.0736 90.8909 37.0694 90.8437 37.0516 90.8164C37.0337 90.789 36.998 90.7712 37.0019 90.7664C37.033 90.7289 37.1322 90.7888 37.1685 90.7978C37.2036 90.8066 37.0608 90.7531 37.0067 90.7348C36.9874 90.7283 36.9883 90.788 36.9704 90.8199C36.8766 90.9876 36.4845 90.8345 36.357 90.7844C36.2059 90.7251 36.672 90.8518 36.7577 90.861C36.8022 90.8658 36.7537 90.7441 36.794 90.6855C36.8454 90.6108 36.9966 90.6446 37.0422 90.6446C37.3033 90.6446 36.6281 90.6443 36.5468 90.7027C36.5169 90.7242 36.5548 90.7701 36.5909 90.7974C36.6647 90.8533 36.807 90.9057 36.9289 90.9554C36.9577 90.9672 36.8803 90.8613 36.8085 90.8073C36.7664 90.7757 36.7009 90.7533 36.6643 90.7618C36.6276 90.7704 36.6187 90.815 36.623 90.8603C36.6273 90.9057 36.6452 90.9503 36.6095 91.0504" stroke="#F3F3F3" stroke-width="0.5" stroke-linecap="round"/>
<path d="M35.014 91.2393C35.2751 91.4014 35.6515 91.5629 35.9737 91.69C36.0233 91.7095 36.0595 91.7172 36.0868 91.7039C36.1142 91.6906 36.132 91.6549 36.1278 91.6053C36.0335 91.4019 35.9342 91.3208 35.8713 91.2713C35.8352 91.2485 35.7906 91.2307 35.7446 91.2123" stroke="#F3F3F3" stroke-width="0.5" stroke-linecap="round"/>
<path d="M35.5007 91.1042C35.5986 91.1756 36.1381 91.4278 36.3396 91.4786C36.6899 91.5671 35.7902 91.2849 35.6856 91.2754C35.5052 91.2591 36.0229 91.3385 36.1902 91.3343C36.2323 91.3332 36.1322 91.2308 36.1274 91.199C36.1163 91.1244 36.258 91.3204 36.2673 91.3431C36.3479 91.5394 35.9255 91.1047 35.808 91.028C35.7946 91.0192 35.897 91.0498 35.9468 91.0859C35.9555 91.0922 35.9163 91.0863 35.9068 91.1085C35.8769 91.1786 35.9961 91.302 36.0774 91.3699C36.0962 91.3753 36.0694 91.3217 36.0377 91.2718C36.0061 91.2219 35.9704 91.1772 35.8795 91.1312" stroke="#F3F3F3" stroke-width="0.5" stroke-linecap="round"/>
<path d="M85.0132 22.1552L44.6979 43.9473V62.1073L36.3443 58.1121V41.7681L79.5652 18.16L85.0132 22.1552Z" fill="#F3F3F3"/>
<path d="M84.1868 21.6093C83.9901 21.6808 83.5831 21.8347 83.4617 21.8482C83.4029 21.8548 83.3491 21.8528 83.4153 21.8216C83.9255 21.5806 84.2398 21.5915 84.3802 21.5015C84.4154 21.479 84.4476 21.4475 84.4437 21.4337C84.4056 21.2997 84.0442 21.447 83.8005 21.4291C83.7246 21.4236 83.7533 21.3756 83.7448 21.3705C83.6953 21.3415 83.6099 21.4289 83.5558 21.4245C83.5332 21.4227 83.5374 21.3756 83.5553 21.3482C83.5731 21.3209 83.6088 21.303 83.6049 21.2983C83.5738 21.2608 83.4746 21.3206 83.4384 21.3297C83.4032 21.3385 83.5461 21.2849 83.6002 21.2667C83.6194 21.2602 83.6186 21.3198 83.6364 21.3517C83.7302 21.5195 84.1224 21.3664 84.2498 21.3163C84.4009 21.2569 83.9349 21.3837 83.8491 21.3929C83.8047 21.3976 83.8532 21.276 83.8129 21.2174C83.7614 21.1427 83.6102 21.1764 83.5646 21.1764C83.3035 21.1764 83.9787 21.1761 84.06 21.2346C84.0899 21.2561 84.052 21.302 84.0159 21.3293C83.9421 21.3851 83.7999 21.4375 83.678 21.4873C83.6492 21.4991 83.7265 21.3931 83.7984 21.3392C83.8404 21.3076 83.9059 21.2852 83.9426 21.2937C83.9793 21.3022 83.9882 21.3469 83.9838 21.3922C83.9795 21.4375 83.9617 21.4822 83.9974 21.5823" stroke="#F3F3F3" stroke-width="0.5" stroke-linecap="round"/>
<path d="M85.5928 21.7712C85.3317 21.9333 84.9554 22.0948 84.6331 22.2218C84.5835 22.2414 84.5473 22.249 84.52 22.2358C84.4927 22.2225 84.4748 22.1868 84.479 22.1371C84.5733 21.9338 84.6726 21.8526 84.7355 21.8031C84.7716 21.7804 84.8163 21.7625 84.8623 21.7441" stroke="#F3F3F3" stroke-width="0.5" stroke-linecap="round"/>
<path d="M85.1062 21.636C85.0082 21.7075 84.4687 21.9596 84.2673 22.0105C83.9169 22.099 84.8167 21.8168 84.9212 21.8073C85.1017 21.791 84.584 21.8703 84.4166 21.8662C84.3745 21.8651 84.4747 21.7627 84.4794 21.7309C84.4905 21.6562 84.3489 21.8522 84.3395 21.8749C84.2589 22.0712 84.6814 21.6366 84.7988 21.5599C84.8123 21.5511 84.7098 21.5817 84.66 21.6178C84.6514 21.624 84.6906 21.6182 84.7001 21.6404C84.73 21.7105 84.6108 21.8338 84.5295 21.9017C84.5107 21.9071 84.5374 21.8536 84.5691 21.8037C84.6008 21.7537 84.6365 21.7091 84.7274 21.6631" stroke="#F3F3F3" stroke-width="0.5" stroke-linecap="round"/>
<path d="M40.2033 42.9606L84.0597 19.2408M104.672 31.8091L62.1315 54.889L19.5907 31.8091M62.1315 100.912V54.8433M18.275 73.1244V36.5622C18.2768 34.9593 18.7279 33.385 19.5832 31.9972C20.4385 30.6095 21.6679 29.4571 23.148 28.6556L57.2586 10.3745C58.7401 9.57225 60.4207 9.1499 62.1315 9.1499C63.8423 9.1499 65.5229 9.57225 67.0044 10.3745L101.115 28.6556C102.595 29.4571 103.824 30.6095 104.68 31.9972C105.535 33.385 105.986 34.9593 105.988 36.5622V73.1244C105.986 74.7273 105.535 76.3016 104.68 77.6893C103.824 79.0771 102.595 80.2295 101.115 81.031L67.0044 99.3121C65.5229 100.114 63.8423 100.537 62.1315 100.537C60.4207 100.537 58.7401 100.114 57.2586 99.3121L23.148 81.031C21.6679 80.2295 20.4385 79.0771 19.5832 77.6893C18.7279 76.3016 18.2768 74.7273 18.275 73.1244Z" stroke="#F3F3F3" stroke-width="4" stroke-linecap="round" stroke-linejoin="round"/>
<path d="M37.248 86.3014C37.3278 86.3086 37.5018 86.3376 37.7023 86.3995C37.8612 86.4484 38.026 86.4831 38.1866 86.5233C38.3287 86.5588 38.4558 86.6141 38.6088 86.6543C38.7928 86.7027 38.9363 86.767 39.1002 86.8217C39.3118 86.8924 39.5915 86.9854 39.7805 87.0545C40.1411 87.1864 40.3192 87.2475 40.4581 87.3022C40.5792 87.3499 40.7128 87.386 40.9163 87.4586C41.1422 87.5392 41.3457 87.6114 41.6145 87.695C42.2328 87.8874 42.3508 87.9538 42.471 88.0011C42.6067 88.0545 42.7583 88.063 42.8535 88.0922C42.854 88.0995 42.8251 88.1067 42.7959 88.1104C42.7666 88.1141 42.7378 88.1141 42.7081 88.1141" stroke="#27453F" stroke-width="0.5" stroke-linecap="round"/>
<path d="M37.248 86.3014C37.4732 86.4394 37.6333 86.5268 37.7862 86.5996C37.9278 86.6671 38.0919 86.7452 38.2448 86.7854C38.3759 86.8198 38.4851 86.8692 38.674 86.9452C39.0242 87.0861 39.2565 87.1746 39.5619 87.2802C39.7814 87.356 39.9698 87.4148 40.163 87.4805C40.2997 87.527 40.4433 87.5607 40.7159 87.6624C40.8755 87.7219 41.0111 87.7642 41.1533 87.8082C41.282 87.8481 41.4405 87.9245 41.6407 87.9683C41.8537 88.0149 42.0516 88.0918 42.2416 88.1504C42.447 88.2137 42.8015 88.3102 43.0204 88.376C43.1531 88.4159 43.268 88.4631 43.4608 88.5325C43.6177 88.6018 43.8638 88.6741 44.761 88.8705C44.9781 88.9076 45.1079 88.9148 45.2415 88.9222" stroke="#27453F" stroke-width="0.5" stroke-linecap="round"/>
<path d="M45.3069 88.9219L45.3285 88.9004" stroke="#27453F" stroke-width="0.5" stroke-linecap="round"/>
<path d="M37.3572 86.3888H37.4019" stroke="#27453F" stroke-width="0.5" stroke-linecap="round"/>
<path d="M37.4227 86.3889C37.5889 86.3744 37.9529 86.3163 38.121 86.2798C38.2801 86.2451 38.4413 86.236 38.7058 86.2178C38.8681 86.2067 39.1568 86.2141 39.3593 86.2069C39.5619 86.1997 39.67 86.1853 40.1689 86.1707C40.6679 86.156 41.5544 86.1416 41.9894 86.1342C42.4245 86.1268 42.3812 86.1268 42.2725 86.1484C42.1637 86.17 41.9907 86.2133 41.9413 86.2391C41.8918 86.265 41.9711 86.2722 42.3507 86.2399C42.7302 86.2076 43.4077 86.1355 43.9153 86.0984C44.7386 86.0382 45.0739 86.0901 45.0596 86.1518C44.9876 86.2207 44.705 86.3227 44.3736 86.3921C44.2728 86.3967 44.3088 86.3391 44.3678 86.2578" stroke="#27453F" stroke-width="0.5" stroke-linecap="round"/>
<path d="M43.8437 84.3358C43.7932 84.3574 43.7428 84.3791 43.742 84.401C43.7232 84.9419 45.1174 84.8089 44.9269 84.737C44.7063 84.6539 44.239 84.4634 43.8427 84.32C43.4464 84.1766 43.1365 84.0829 43.0057 84.0491C42.8468 84.0079 43.5947 84.3136 43.8505 84.4265C43.911 84.4532 43.6118 84.4234 43.221 84.3726C42.4592 84.2736 41.9366 84.2919 41.8893 84.3391C41.8637 84.3935 41.6761 84.4232 41.3742 84.434C41.2526 84.4448 41.1949 84.4664 41.07 84.5105" stroke="#27453F" stroke-width="4" stroke-linecap="round"/>
<path d="M39.0607 85.4497L39.1256 85.5146" stroke="#27453F" stroke-width="4" stroke-linecap="round"/>
<path d="M39.6722 85.5152C40.0042 85.5657 40.6904 85.6681 40.8475 85.6862C41.0038 85.7043 41.222 85.7336 41.397 85.7553C41.5719 85.7771 41.7173 85.7917 41.8412 85.8173C41.9915 85.8483 42.1537 85.8572 42.3288 85.89C42.5933 85.9395 42.8382 86.0101 43.0385 86.0429C43.2698 86.0807 43.4427 86.1049 43.7474 86.1411C44.0634 86.1788 44.3163 86.1342 44.4181 86.0979C44.4645 86.0814 44.491 86.0472 44.5131 86.0072C44.6364 85.783 44.55 85.4289 44.4309 85.0417C44.3432 84.7568 44.1315 84.3158 44.0061 83.9738C43.8021 83.418 43.771 83.0126 43.7709 82.7362C43.7708 82.6253 43.7996 82.5751 43.8468 82.5203C43.9537 82.396 44.1123 82.3268 44.2612 82.2868C44.4152 82.2455 44.5998 82.2392 45.2788 82.3978C45.8626 82.5341 46.9092 82.8734 47.4945 83.0584C48.0798 83.2434 48.1663 83.2866 48.2289 83.3233C48.331 83.3832 48.4583 83.7933 48.6075 84.4224C48.6959 84.7954 48.6922 84.9544 48.6634 85.0016C48.6164 85.0787 48.4598 85.0275 48.2752 84.9806C47.9452 84.8967 47.6233 84.7296 47.3151 84.5557C46.8979 84.3203 46.5676 84.0168 46.3785 83.7987C46.2537 83.6548 46.2461 83.485 46.2569 83.3431C46.2612 83.2869 46.2893 83.2661 46.3257 83.2514C46.3621 83.2366 46.4125 83.2294 46.4637 83.2401C46.8406 83.3189 47.1481 83.9702 47.2179 84.2114C47.2302 84.2539 47.2145 84.2843 47.1892 84.3028C47.13 84.3459 46.9967 84.3358 46.5919 84.2061C46.2582 84.0992 45.697 83.8169 45.3172 83.6292C44.4821 83.2165 44.3462 82.9822 44.3135 82.8951C44.2975 82.8527 44.3023 82.8079 44.3204 82.7676C44.3744 82.6913 44.4476 82.6325 44.5202 82.5926C44.5568 82.5742 44.5928 82.5598 44.6299 82.545" stroke="#27453F" stroke-width="4" stroke-linecap="round"/>
<path d="M38.8054 85.0322C39.0468 85.0541 39.4866 85.1857 39.8623 85.3623C40.273 85.5553 40.8742 85.9343 41.3487 86.1989C41.4835 86.274 41.3649 86.2888 41.2541 86.2779C40.8329 86.2364 40.4827 86.1354 40.0746 85.9697C39.977 85.9301 39.8874 85.9145 39.897 85.9251C40.1641 86.2198 40.6996 86.31 41.1186 86.4866C41.5381 86.6634 41.89 86.7955 42.2432 86.9496C42.5966 87.1038 42.9482 87.2359 43.3014 87.3027C43.7476 87.3871 44.2048 87.6552 44.558 87.8093C44.9379 87.9751 45.3292 88.1182 45.7921 88.3163C46.1584 88.473 46.5196 88.5812 46.9386 88.7901C47.35 88.9954 47.7101 89.1539 48.1397 89.3083C48.9589 89.6029 49.5606 89.8589 49.9488 89.9264C50.2262 89.9746 49.2789 89.6407 48.8599 89.3434C48.465 89.0632 48.2418 88.7597 47.8685 87.7842C47.1676 85.9527 46.9628 84.3517 46.853 83.8236C46.6724 82.9548 46.4337 82.4542 46.3675 82.2012C46.3361 82.0812 46.345 81.9701 46.4869 81.9139C46.886 81.7557 47.6631 82.0541 48.936 82.7446C49.7733 83.1988 50.9072 84.0243 51.4922 84.3309C52.0771 84.6374 52.0553 84.441 51.8476 83.9906C51.3049 82.8134 50.6023 81.4893 50.2385 80.3666C50.0828 79.8861 50.1148 79.5495 50.1585 79.4245C50.4737 78.522 51.6347 81.7241 51.8331 81.8352C52.5306 82.2258 51.0434 79.8114 50.5904 79.3018C50.5015 79.2018 50.4032 79.1474 50.3582 79.1573C49.5143 79.3435 51.1935 81.6341 51.4578 81.9334C52.11 82.6721 51.7894 79.9225 52.0318 79.1265C52.0812 78.9645 52.1638 78.8617 52.263 78.8818C53.2418 79.0809 53.1128 81.0177 53.1677 81.4139C53.1926 81.5931 53.2445 81.7227 53.3652 81.3319C53.7621 80.0463 54.0811 78.6216 54.4224 78.0363C55.0123 77.0245 55.2286 80.9073 55.3608 81.1728C55.8836 82.2222 55.8463 78.2658 55.9124 78.3289C56.0694 78.4789 55.9349 79.1341 56.0331 79.0776C56.3278 78.3008 56.6174 77.3842 56.8043 77.076C56.9038 76.9424 57.0129 76.8551 57.3238 76.699" stroke="#27453F" stroke-width="4" stroke-linecap="round"/>
<path d="M58.1836 74.7148C58.2272 74.8021 58.2934 75.0654 58.3595 76.2145C58.413 77.1441 58.382 78.7823 58.3929 79.6692C58.4038 80.5561 58.4256 80.6434 58.4369 81.0266C58.4481 81.4099 58.4481 82.0865 58.4481 82.7836" stroke="#27453F" stroke-width="4" stroke-linecap="round"/>
<path d="M66.8478 76.6328C66.8478 76.7863 66.7604 77.2693 66.7045 77.745C66.6564 78.1541 66.6275 78.5065 66.5835 78.5515C66.2265 78.9164 66.386 77.6054 66.2527 77.2296C66.2305 77.1409 66.2087 77.0536 66.1865 76.9649C66.1643 76.8763 66.1425 76.789 66.12 76.5005" stroke="#27453F" stroke-width="4" stroke-linecap="round"/>
<path d="M66.3184 76.5005V84.8999" stroke="#27453F" stroke-width="4" stroke-linecap="round"/>
<path d="M66.1862 77.691V79.0143" stroke="#27453F" stroke-width="4" stroke-linecap="round"/>
<path d="M66.1862 77.4265C66.1862 77.492 66.1862 77.5575 66.1862 77.8533C66.1862 78.149 66.1862 78.673 66.12 79.2129" stroke="#27453F" stroke-width="4" stroke-linecap="round"/>
<path d="M66.0539 77.0958C66.0539 77.447 66.0103 77.9318 65.9987 79.822C66.0539 80.6209 66.0976 81.2386 66.12 83.1077C66.12 83.4027 66.12 83.228 66.12 83.0482" stroke="#27453F" stroke-width="4" stroke-linecap="round"/>
<path d="M65.2602 77.8894C65.2602 77.9331 65.2602 78.1956 65.2275 78.5266C65.2175 78.6276 64.9745 78.4628 64.7986 78.4407C63.9958 78.3396 64.5763 80.8418 64.6537 81.2386C64.665 81.5455 64.6868 81.8127 64.7199 82.0977C64.7311 82.2955 64.7311 82.601 64.7311 82.9158" stroke="#27453F" stroke-linecap="round"/>
<path d="M64.5317 77.9476V84.1284" stroke="#27453F" stroke-linecap="round"/>
<path d="M64.5099 77.7947V83.4731" stroke="#27453F" stroke-linecap="round"/>
<path d="M64.4444 78.035V83.3859" stroke="#27453F" stroke-linecap="round"/>
<path d="M78.653 90.4479C78.7794 90.4029 79.0155 90.2756 79.2019 90.1757C79.3922 90.0737 79.5247 90.0123 79.6609 89.9529C79.8083 89.8886 79.9695 89.7762 80.1425 89.6578C80.2762 89.5662 80.4329 89.4851 80.7053 89.34C80.9247 89.2231 81.1236 89.1128 81.3414 88.9946C81.6314 88.8373 81.7778 88.7492 81.9279 88.6764C82.1143 88.5859 82.4396 88.4226 82.6864 88.3175C82.8755 88.237 83.0317 88.1315 83.1772 88.0268C83.321 87.9235 83.495 87.8317 83.9211 87.5823C84.0762 87.4866 84.1858 87.4225 84.2855 87.3681C84.3313 87.3407 84.3673 87.3138 84.4589 87.2314" stroke="#27453F" stroke-linecap="round"/>
<path d="M71.3345 80.8777C71.3005 81.7688 71.2314 82.4539 71.0094 83.0731C70.9445 83.2541 70.8214 83.4491 70.7349 83.4012C69.9173 82.9486 70.6463 81.739 70.7333 81.1718C70.757 81.0177 70.7843 80.8468 70.7679 80.8272C70.3496 80.3306 70.3043 82.2839 70.4063 82.5245C70.7802 83.4066 72.7376 82.594 73.6493 83.0221C74.0073 83.1901 74.116 83.4862 74.167 83.6412C74.3558 84.2152 75.3852 83.1102 75.5742 83.1606C76.4115 83.3842 74.4951 84.9944 74.1005 85.8026C74.0018 86.0048 73.844 86.1626 73.689 86.2842C73.5339 86.4058 73.364 86.4738 73.2594 86.3728C72.9732 86.0965 73.1878 85.5497 73.0703 85.4791C72.3004 85.0165 71.5426 86.4058 71.3015 86.4578C70.4452 86.6426 73.6308 85.7196 74.3344 85.8386C74.6178 85.8866 74.6641 86.1956 74.6991 86.4202C74.7654 86.845 74.6321 87.2289 74.6306 87.3674C75.9302 86.6489 77.5795 86.1668 78.2522 86.1997C78.3398 86.2677 78.3398 86.4037 78.3398 86.4408" stroke="#27453F" stroke-width="6" stroke-linecap="round"/>
<path d="M81.9967 87.9698C81.7206 88.0182 81.4433 88.108 81.2716 88.1956C81.1794 88.2427 81.085 88.3093 80.7943 88.453C80.5037 88.5966 80.0218 88.8191 79.6548 88.9652C79.2879 89.1113 79.0507 89.1743 78.8358 89.2457C78.6209 89.3171 78.4355 89.3949 78.3252 89.4369C78.1876 89.4892 78.0953 89.4864 77.9869 89.4827C77.9001 89.4797 77.6624 89.4602 77.3294 89.4509C77.1369 89.4455 76.9575 89.3931 76.7389 89.3147C76.5529 89.2481 76.4659 89.1682 76.4435 89.1383C76.4333 89.1249 76.4358 89.1085 76.4432 89.0953C76.4985 88.9969 76.7349 89.0407 77.01 89.1316C77.2375 89.2068 77.6262 89.3893 77.8527 89.492C78.0793 89.5947 78.1275 89.6243 78.1486 89.6507C78.1697 89.6771 78.1623 89.6994 78.1344 89.7145C77.9309 89.8251 77.6718 89.7485 77.69 89.7411C77.7289 89.7254 77.8342 89.7041 77.986 89.6796C78.3328 89.6236 78.5737 89.6211 78.6317 89.6546C78.6583 89.67 78.6564 89.7104 78.649 89.7387C78.6347 89.7937 78.5855 89.827 78.5685 89.8458C78.5657 89.8489 78.5923 89.8423 78.778 89.7421C78.9637 89.6419 79.3122 89.4491 79.6419 89.2237C79.9715 88.9984 80.2718 88.7463 80.4729 88.5571C80.6739 88.3679 80.7666 88.2493 80.8644 88.0899C80.9622 87.9306 81.0623 87.7341 81.1268 87.5976C81.2234 87.3935 81.2552 87.2959 81.2535 87.2622C81.2472 87.1373 81.0271 87.2956 81.0082 87.3032C80.9593 87.3228 81.1684 87.2435 81.3308 87.2098C81.5313 87.1683 81.7411 87.1833 81.9075 87.2168C81.983 87.232 82.0331 87.2726 82.0654 87.312C82.1253 87.3851 82.1092 87.5122 82.0664 87.6504C82.0205 87.7987 81.844 87.8944 81.6592 87.9841C81.5622 88.0312 81.4485 88.059 81.3319 88.0873C81.0981 88.144 80.8298 88.1719 80.6386 88.1591C80.555 88.1535 80.8531 87.9035 81.1093 87.722C81.2144 87.6476 81.2802 87.6258 81.3219 87.6106C81.3637 87.5953 81.3822 87.5916 81.3547 87.6286C81.3272 87.6657 81.253 87.7435 81.0573 87.8485C80.8615 87.9535 80.5464 88.0832 80.5676 88.0574C80.5887 88.0316 80.9558 87.8462 81.2153 87.7248C81.4748 87.6033 81.6157 87.5514 81.7272 87.521C81.8387 87.4905 81.9165 87.4831 81.9492 87.5089C81.9819 87.5348 81.9671 87.5941 81.9075 87.6691C81.848 87.7442 81.7442 87.8332 81.5702 87.9365C81.3963 88.0398 81.1553 88.1547 80.6326 88.3121C80.1099 88.4696 79.3129 88.6661 78.9134 88.7636C78.5139 88.8611 78.5362 88.8537 78.7626 88.7535C78.9891 88.6533 79.4192 88.4605 79.7667 88.3222C80.1143 88.184 80.3664 88.1062 80.5853 88.0494C80.8041 87.9926 80.9821 87.9592 81.0886 87.9531C81.1951 87.9471 81.2247 87.9693 81.1566 88.0308C81.0884 88.0923 80.9216 88.1924 80.1387 88.4034C79.3558 88.6144 77.9619 88.9332 77.1455 89.1049C76.3292 89.2765 76.1327 89.2914 76.5264 89.1396C76.9201 88.9878 77.91 88.669 78.5144 88.4899C79.1189 88.3108 79.3079 88.2812 78.9215 88.3808C78.5351 88.4805 77.5675 88.7103 76.5482 88.9471" stroke="#27453F" stroke-linecap="round"/>
<path d="M60.4005 72.1437V86.0625" stroke="#F3F3F3" stroke-linecap="round"/>
<path d="M63.7986 74.0387V89.9179" stroke="#F3F3F3" stroke-linecap="round"/>
<path d="M78.2401 92.009C78.3917 91.8574 78.7393 91.5529 79.0775 91.3454C79.3845 91.1571 79.7195 90.9648 80.0793 90.7681C80.4729 90.5528 80.9167 90.3113 81.7655 89.9519C82.3043 89.7238 82.7032 89.6134 83.1502 89.4069C83.6338 89.1835 84.0755 88.9821 84.5117 88.8077C84.9294 88.6406 85.3602 88.4162 85.8837 88.2088C86.1444 88.0895 86.364 88.0013 86.6564 87.9039C86.8625 87.8281 87.186 87.6987 87.5193 87.5654" stroke="#F3F3F3" stroke-linecap="round"/>
<path d="M78.276 91.395C78.5462 91.1476 78.7307 91.0209 79.1217 90.7879C79.3078 90.677 79.4282 90.6401 79.5319 90.5999C79.7069 90.5319 79.8719 90.4845 80.0562 90.4184C80.1945 90.3688 80.3446 90.3116 80.5661 90.2168C80.694 90.162 80.8228 90.11 80.9552 90.0296C81.2969 89.8217 81.5255 89.7587 81.6472 89.6893C81.7329 89.6404 81.8315 89.5972 81.9267 89.5567C82.0359 89.5101 82.1483 89.4589 82.2552 89.3925C82.3723 89.3198 82.5286 89.2514 82.7733 89.1363C82.8806 89.0858 83.178 88.9297 83.5727 88.7251C83.8979 88.5566 84.1888 88.3869 84.3124 88.3149C84.5701 88.1648 84.7418 88.0297 84.8544 87.9632C85.0069 87.8733 85.1564 87.7417 85.3039 87.675C85.4702 87.5999 85.71 87.436 85.8312 87.361C85.8715 87.3379 85.9285 87.3094 85.9722 87.289C86.0159 87.2686 86.0444 87.2572 86.0911 87.2281" stroke="#F3F3F3" stroke-linecap="round"/>
<path d="M36.4337 87.1915C36.4875 87.1915 36.6229 87.2454 36.8533 87.3942C37.1106 87.6238 37.3569 87.8163 37.5739 87.9247C37.6832 87.9794 37.7908 88.0332 37.8202 88.0071" stroke="#F3F3F3" stroke-linecap="round"/>
<path d="M36.5153 86.2128C36.7045 86.3204 37.0845 86.7005 37.4789 86.8917C37.8902 87.0912 38.2801 87.3807 38.7291 87.7338C39.1607 88.0732 39.5851 88.3316 40.169 88.6986C41.0821 89.2725 41.8132 89.555 42.3042 89.8139C43.1362 90.2527 44.3692 90.8876 45.4009 91.403C46.1129 91.7588 46.625 92.0832 47.6576 92.8026C48.3116 93.225 49.5562 94.0912 50.8786 95.0042C51.1392 95.2093 51.3276 95.3977 51.5217 95.5918" stroke="#F3F3F3" stroke-linecap="round"/>
</svg>
